trial_2_IK.mot
nRows=12
nColumns=42

name trial_2_IK.mot
datacolumns 42
datarows 12
range 3.9000000000 4.0100000000
endheader
time	pelvis_tilt	pelvis_list	pelvis_rotation	pelvis_tx	pelvis_ty	pelvis_tz	hip_flexion_r	hip_adduction_r	hip_rotation_r	knee_angle_r	knee_vv_r	knee_rot_r	ankle_angle_r	subtalar_angle_r	mtp_angle_r	hip_flexion_l	hip_adduction_l	hip_rotation_l	knee_angle_l	knee_vv_l	knee_rot_l	ankle_angle_l	subtalar_angle_l	mtp_angle_l	lumbar_extension	lumbar_bending	lumbar_rotation	arm_flex_r	arm_add_r	arm_rot_r	elbow_flex_r	pro_sup_r	wrist_flex_r	wrist_dev_r	arm_flex_l	arm_add_l	arm_rot_l	elbow_flex_l	pro_sup_l	wrist_flex_l	wrist_dev_l
        3.9000000000	        9.1135551200	        4.1922327000	       -5.2413817600	        0.0879133700	        0.9155761300	       -0.0252164200	        9.0951107600	       -7.0978542100	        1.0383256100	      -61.0890754300	        0.0000000000	        0.0000000000	        3.2811677800	        0.0000000000	        0.0000000000	       -3.0601968600	        9.6799271700	       -4.3023356500	       -8.2224033200	        0.0000000000	        0.0000000000	        1.2300130100	        0.0000000000	        0.0000000000	      -24.0176053500	       -4.7677550400	       -0.6970171600	        1.6429036500	      -10.7106499200	       41.6835177500	        5.4008359800	       86.5166270600	        0.0000000000	        0.0000000000	       19.4279686000	      -18.9252596900	       29.4643537500	       19.7085643200	       85.9436692700	        0.0000000000	        0.0000000000	
        3.9100000000	        8.8721609600	        4.0111547900	       -4.9425134200	        0.0872923600	        0.9157480300	       -0.0259640900	       10.3864386700	       -6.8858437500	        0.4988833300	      -60.4490811300	        0.0000000000	        0.0000000000	        4.5799173200	        0.0000000000	        0.0000000000	       -3.4204527800	        9.5715510300	       -3.8856637600	       -8.1198324700	        0.0000000000	        0.0000000000	        1.6377307000	        0.0000000000	        0.0000000000	      -23.7893247400	       -4.3827545400	       -1.0893385900	        0.7161404500	      -10.6169771100	       41.2568667100	        5.2201893400	       86.5166270600	        0.0000000000	        0.0000000000	       19.8008768200	      -19.2876174300	       28.1076846000	       20.7643579300	       85.9436692700	        0.0000000000	        0.0000000000	
        3.9200000000	        8.6428184700	        3.8112822800	       -4.6797660100	        0.0867084300	        0.9158667800	       -0.0265927000	       11.5761031200	       -6.6509364500	       -0.0442978400	      -59.5204756000	        0.0000000000	        0.0000000000	        5.7135426200	        0.0000000000	        0.0000000000	       -3.7996850400	        9.4363713100	       -3.5305087800	       -8.0173376900	        0.0000000000	        0.0000000000	        2.0645580500	        0.0000000000	        0.0000000000	      -23.5631390800	       -4.0026457100	       -1.4153723500	       -0.1907622400	      -10.5422504700	       40.8158935000	        5.0460019400	       86.5166270600	        0.0000000000	        0.0000000000	       20.1004393600	      -19.6221182300	       26.6609977700	       21.9022795400	       85.9436692700	        0.0000000000	        0.0000000000	
        3.9300000000	        8.4437551100	        3.5971519700	       -4.4610678600	        0.0861640400	        0.9159537800	       -0.0270969100	       12.6435025600	       -6.3952078800	       -0.5861053500	      -58.3056849900	        0.0000000000	        0.0000000000	        6.6594779900	        0.0000000000	        0.0000000000	       -4.2263330300	        9.2785905700	       -3.2372030300	       -7.9020289800	        0.0000000000	        0.0000000000	        2.5091501800	        0.0000000000	        0.0000000000	      -23.3641857300	       -3.6335778900	       -1.6831199900	       -1.0641430600	      -10.4828292400	       40.3683058500	        4.8733629200	       86.5166270600	        0.0000000000	        0.0000000000	       20.3235457800	      -19.9330559100	       25.1492070200	       23.1218768300	       85.9436692700	        0.0000000000	        0.0000000000	
        3.9400000000	        8.2862563100	        3.3738713100	       -4.2852405700	        0.0856589100	        0.9160090000	       -0.0274782500	       13.5763103700	       -6.1232804500	       -1.1228633700	      -56.8104386900	        0.0000000000	        0.0000000000	        7.4021114000	        0.0000000000	        0.0000000000	       -4.7159366000	        9.1046217400	       -2.9962633200	       -7.7660153800	        0.0000000000	        0.0000000000	        2.9696575100	        0.0000000000	        0.0000000000	      -23.2094835500	       -3.2798323900	       -1.9062402100	       -1.8935511700	      -10.4341930500	       39.9200789200	        4.6994132500	       86.5166270600	        0.0000000000	        0.0000000000	       20.4749187000	      -20.2259958000	       23.6098706600	       24.4121039800	       85.9436692700	        0.0000000000	        0.0000000000	
        3.9500000000	        8.1736425700	        3.1468784100	       -4.1423860100	        0.0851964300	        0.9160224100	       -0.0277506600	       14.3694248000	       -5.8402857600	       -1.6501199900	      -55.0467597600	        0.0000000000	        0.0000000000	        7.9326389900	        0.0000000000	        0.0000000000	       -5.2680745200	        8.9217756900	       -2.7927707200	       -7.6094592900	        0.0000000000	        0.0000000000	        3.4443873400	        0.0000000000	        0.0000000000	      -23.1072767700	       -2.9454817000	       -2.0998195600	       -2.6721414000	      -10.3906557800	       39.4761220000	        4.5233428700	       86.5166270600	        0.0000000000	        0.0000000000	       20.5651206800	      -20.5063276800	       22.0870311100	       25.7535173900	       85.9436692700	        0.0000000000	        0.0000000000	
        3.9600000000	        8.1021278800	        2.9225100500	       -4.0169727900	        0.0847775400	        0.9159807100	       -0.0279301100	       15.0248416200	       -5.5503825600	       -2.1602751300	      -53.0341661200	        0.0000000000	        0.0000000000	        8.2489374900	        0.0000000000	        0.0000000000	       -5.8697109800	        8.7355214800	       -2.6099312800	       -7.4420306400	        0.0000000000	        0.0000000000	        3.9319666200	        0.0000000000	        0.0000000000	      -23.0570097500	       -2.6354631200	       -2.2767199400	       -3.3969740000	      -10.3459558200	       39.0409878300	        4.3459959900	       86.5166270600	        0.0000000000	        0.0000000000	       20.6078460700	      -20.7772320300	       20.6239922600	       27.1222577500	       85.9436692700	        0.0000000000	        0.0000000000	
        3.9700000000	        8.0629578900	        2.7078086300	       -3.8926231700	        0.0843932900	        0.9158694500	       -0.0280164900	       15.5513428400	       -5.2559083100	       -2.6411082300	      -50.7979038100	        0.0000000000	        0.0000000000	        8.3564613500	        0.0000000000	        0.0000000000	       -6.5010444800	        8.5486758700	       -2.4313664500	       -7.2799948700	        0.0000000000	        0.0000000000	        4.4311438600	        0.0000000000	        0.0000000000	      -23.0505289100	       -2.3550240000	       -2.4447976800	       -4.0687415900	      -10.2944058800	       38.6195991600	        4.1693583600	       86.5166270600	        0.0000000000	        0.0000000000	       20.6170153500	      -21.0391326200	       19.2571281000	       28.4944671600	       85.9436692700	        0.0000000000	        0.0000000000	
        3.9800000000	        8.0444262800	        2.5086309800	       -3.7574625300	        0.0840400100	        0.9156832000	       -0.0279951500	       15.9627403200	       -4.9568352200	       -3.0759873200	      -48.3648590400	        0.0000000000	        0.0000000000	        8.2701954600	        0.0000000000	        0.0000000000	       -7.1406819000	        8.3634522900	       -2.2426257300	       -7.1396685500	        0.0000000000	        0.0000000000	        4.9405115100	        0.0000000000	        0.0000000000	      -23.0748003100	       -2.1081297600	       -2.6059110500	       -4.6904919700	      -10.2320906700	       38.2177540100	        3.9961139900	       86.5166270600	        0.0000000000	        0.0000000000	       20.6045744700	      -21.2909743000	       18.0122854300	       29.8496647000	       85.9436692700	        0.0000000000	        0.0000000000	
        3.9900000000	        8.0334999000	        2.3280262500	       -3.6077926800	        0.0837148900	        0.9154238700	       -0.0278665000	       16.2749137300	       -4.6506135500	       -3.4450005700	      -45.7593065200	        0.0000000000	        0.0000000000	        8.0166670900	        0.0000000000	        0.0000000000	       -7.7702171000	        8.1827619400	       -2.0324977100	       -7.0314669900	        0.0000000000	        0.0000000000	        5.4582647000	        0.0000000000	        0.0000000000	      -23.1151701600	       -1.8963365500	       -2.7570947200	       -5.2658470100	      -10.1575932600	       37.8421354000	        3.8292147100	       86.5166270600	        0.0000000000	        0.0000000000	       20.5794371500	      -21.5316853900	       16.9040656500	       31.1723008700	       85.9436692700	        0.0000000000	        0.0000000000	
        4.0000000000	        8.0185894800	        2.1659178600	       -3.4475680500	        0.0834152900	        0.9150783300	       -0.0276479700	       16.5027133800	       -4.3327963400	       -3.7255635700	      -43.0004258200	        0.0000000000	        0.0000000000	        7.6343408900	        0.0000000000	        0.0000000000	       -8.3772839900	        8.0090539200	       -1.7940724100	       -6.9570745500	        0.0000000000	        0.0000000000	        5.9819629500	        0.0000000000	        0.0000000000	      -23.1584738300	       -1.7187441100	       -2.8929961800	       -5.7973292400	      -10.0719455500	       37.4996758800	        3.6714019000	       86.5166270600	        0.0000000000	        0.0000000000	       20.5468155700	      -21.7607894500	       15.9373190400	       32.4513907000	       85.9436692700	        0.0000000000	        0.0000000000	
        4.0100000000	        7.9919025700	        2.0200271800	       -3.2840137300	        0.0831521400	        0.9146136100	       -0.0273475400	       16.6577375900	       -3.9985582400	       -3.8922698200	      -40.1018377200	        0.0000000000	        0.0000000000	        7.1709010600	        0.0000000000	        0.0000000000	       -8.9573829100	        7.8425673900	       -1.5252871700	       -6.9103483600	        0.0000000000	        0.0000000000	        6.5083349500	        0.0000000000	        0.0000000000	      -23.1954943600	       -1.5725946300	       -3.0086926000	       -6.2852322400	       -9.9778260300	       37.1964329400	        3.5247960700	       86.5166270600	        0.0000000000	        0.0000000000	       20.5079355900	      -21.9782342100	       15.1096758500	       33.6789057700	       85.9436692700	        0.0000000000	        0.0000000000	
